<svg xmlns="http://www.w3.org/2000/svg" xmlns:xlink="http://www.w3.org/1999/xlink" width="500" zoomAndPan="magnify" viewBox="0 0 375 374.999991" height="500" preserveAspectRatio="xMidYMid meet" version="1.0"><defs><g/><clipPath id="bb6add4c23"><path d="M 68.746094 72.921875 L 298.667969 72.921875 L 298.667969 302.84375 L 68.746094 302.84375 Z M 68.746094 72.921875 " clip-rule="nonzero"/></clipPath><clipPath id="021bf0014e"><path d="M 183.707031 72.921875 C 120.214844 72.921875 68.746094 124.390625 68.746094 187.882812 C 68.746094 251.375 120.214844 302.84375 183.707031 302.84375 C 247.199219 302.84375 298.667969 251.375 298.667969 187.882812 C 298.667969 124.390625 247.199219 72.921875 183.707031 72.921875 Z M 183.707031 72.921875 " clip-rule="nonzero"/></clipPath></defs><rect x="-37.5" width="450" fill="#ffffff" y="-37.499999" height="449.999989" fill-opacity="1"/><rect x="-37.5" width="450" fill="#000000" y="-37.499999" height="449.999989" fill-opacity="1"/><g clip-path="url(#bb6add4c23)"><g clip-path="url(#021bf0014e)"><path fill="#000000" d="M 68.746094 72.921875 L 298.667969 72.921875 L 298.667969 302.84375 L 68.746094 302.84375 Z M 68.746094 72.921875 " fill-opacity="1" fill-rule="nonzero"/></g></g><g fill="#ffffff" fill-opacity="1"><g transform="translate(142.841318, 267.133319)"><g><path d="M 167.53125 24.140625 C 159.0625 26.785156 151.4375 27.257812 144.65625 25.5625 C 137.5625 23.65625 131.421875 20.691406 126.234375 16.671875 C 121.265625 12.648438 116.1875 7.832031 111 2.21875 L 27.3125 -90.515625 L 27.3125 -11.109375 C 27.414062 -7.410156 29.054688 -4.660156 32.234375 -2.859375 C 33.710938 -2.015625 35.300781 -1.59375 37 -1.59375 L 40.015625 -1.59375 L 40.015625 0 L 7.296875 0 L 7.296875 -1.59375 L 10.3125 -1.59375 C 12.96875 -1.59375 15.242188 -2.515625 17.140625 -4.359375 C 19.046875 -6.210938 20 -8.519531 20 -11.28125 L 20 -98.453125 C 19.476562 -99.191406 18.421875 -100.59375 16.828125 -102.65625 C 15.242188 -104.726562 13.921875 -106.394531 12.859375 -107.65625 C 11.796875 -108.925781 10.363281 -110.59375 8.5625 -112.65625 C 6.769531 -114.726562 5.101562 -116.398438 3.5625 -117.671875 C 2.03125 -118.941406 0.257812 -120.421875 -1.75 -122.109375 C -4.925781 -124.546875 -8.3125 -126.289062 -11.90625 -127.34375 C -15.507812 -128.40625 -18.554688 -128.9375 -21.046875 -128.9375 C -23.535156 -128.9375 -26.207031 -128.515625 -29.0625 -127.671875 L -29.703125 -129.265625 C -24.617188 -131.378906 -19.71875 -132.4375 -15 -132.4375 C -10.289062 -132.4375 -6.242188 -131.878906 -2.859375 -130.765625 C 0.523438 -129.660156 4.175781 -127.675781 8.09375 -124.8125 C 12.007812 -121.957031 15.210938 -119.3125 17.703125 -116.875 C 20.191406 -114.4375 23.179688 -111.257812 26.671875 -107.34375 L 106.703125 -18.421875 L 106.703125 -99.890625 C 106.597656 -102.640625 105.59375 -104.9375 103.6875 -106.78125 C 101.78125 -108.632812 99.503906 -109.5625 96.859375 -109.5625 L 93.84375 -109.5625 L 93.84375 -111.15625 L 126.5625 -111.15625 L 126.5625 -109.5625 L 123.703125 -109.5625 C 121.054688 -109.5625 118.78125 -108.632812 116.875 -106.78125 C 114.96875 -104.9375 113.960938 -102.691406 113.859375 -100.046875 L 113.859375 -10.328125 C 114.910156 -9.160156 116.414062 -7.410156 118.375 -5.078125 C 120.332031 -2.753906 121.707031 -1.113281 122.5 -0.15625 C 123.300781 0.789062 124.492188 2.164062 126.078125 3.96875 C 127.671875 5.769531 129.019531 7.171875 130.125 8.171875 C 131.238281 9.179688 132.613281 10.453125 134.25 11.984375 C 135.894531 13.523438 137.429688 14.742188 138.859375 15.640625 C 140.296875 16.535156 141.910156 17.566406 143.703125 18.734375 C 146.242188 20.222656 149.128906 21.335938 152.359375 22.078125 C 155.585938 22.816406 158.234375 23.1875 160.296875 23.1875 C 162.367188 23.1875 164.566406 22.972656 166.890625 22.546875 Z M 167.53125 24.140625 "/></g></g></g><g fill="#ffffff" fill-opacity="1"><g transform="translate(92.361027, 235.88332)"><g><path d="M -15.875 -87.96875 C -12.8125 -96.96875 -7.675781 -103.160156 -0.46875 -106.546875 C 6.726562 -109.941406 19.484375 -111.640625 37.796875 -111.640625 C 41.609375 -111.640625 51.238281 -111.476562 66.6875 -111.15625 C 77.914062 -110.84375 87.816406 -108.410156 96.390625 -103.859375 C 104.960938 -99.304688 111.65625 -92.875 116.46875 -84.5625 C 121.289062 -76.25 123.703125 -66.585938 123.703125 -55.578125 C 123.703125 -38.953125 118.4375 -25.53125 107.90625 -15.3125 C 97.375 -5.101562 83.632812 0 66.6875 0 L 12.859375 0 L 13.015625 -1.59375 L 14.921875 -1.59375 C 17.566406 -1.59375 19.84375 -2.460938 21.75 -4.203125 C 23.65625 -5.953125 24.769531 -8.097656 25.09375 -10.640625 L 25.09375 -106.390625 C 11.851562 -106.078125 2.484375 -104.015625 -3.015625 -100.203125 C -5.867188 -98.191406 -8.035156 -96.257812 -9.515625 -94.40625 C -11.003906 -92.550781 -12.546875 -90.195312 -14.140625 -87.34375 Z M 35.40625 -106.390625 L 35.40625 -4.765625 L 66.6875 -4.765625 C 80.132812 -4.765625 91.015625 -9.421875 99.328125 -18.734375 C 107.640625 -28.054688 111.796875 -40.335938 111.796875 -55.578125 C 111.796875 -65.640625 109.914062 -74.503906 106.15625 -82.171875 C 102.394531 -89.847656 97.097656 -95.800781 90.265625 -100.03125 C 83.441406 -104.269531 75.582031 -106.390625 66.6875 -106.390625 Z M 35.40625 -106.390625 "/></g></g></g><g fill="#ffffff" fill-opacity="1"><g transform="translate(145.035149, 105.140091)"><g><path d="M 5.5625 -9.65625 L 6.734375 -10.078125 L 7.28125 -2.703125 L 5.90625 -2.1875 L 2.796875 -6.828125 L 3.234375 -1.203125 L 1.84375 -0.6875 L -2.296875 -6.734375 L -1.0625 -7.1875 L 2.046875 -2.53125 L 1.5625 -8.15625 L 2.984375 -8.6875 L 6.0625 -4.0625 Z M 5.5625 -9.65625 "/></g></g></g><g fill="#ffffff" fill-opacity="1"><g transform="translate(161.196043, 99.908586)"><g><path d="M 4.03125 -6.921875 L 0.796875 -6.265625 L 1.15625 -4.46875 L 4.234375 -5.09375 L 4.453125 -3.984375 L 1.375 -3.359375 L 1.75 -1.5 L 5.09375 -2.171875 L 5.234375 -1.046875 L 0.71875 -0.140625 L -0.671875 -7.109375 L 3.8125 -8.015625 Z M 4.03125 -6.921875 "/></g></g></g><g fill="#ffffff" fill-opacity="1"><g transform="translate(173.886069, 97.855489)"><g><path d="M 0.734375 -0.046875 L 0.328125 -7.140625 L 2.6875 -7.265625 C 3.59375 -7.316406 4.289062 -7.191406 4.78125 -6.890625 C 5.28125 -6.597656 5.550781 -6.132812 5.59375 -5.5 C 5.613281 -5.164062 5.546875 -4.859375 5.390625 -4.578125 C 5.242188 -4.296875 5.019531 -4.066406 4.71875 -3.890625 C 5.039062 -3.785156 5.3125 -3.597656 5.53125 -3.328125 C 5.75 -3.054688 5.867188 -2.738281 5.890625 -2.375 C 5.921875 -1.757812 5.71875 -1.253906 5.28125 -0.859375 C 4.84375 -0.460938 4.222656 -0.242188 3.421875 -0.203125 Z M 2.765625 -6.203125 L 1.65625 -6.140625 L 1.765625 -4.21875 L 2.859375 -4.28125 C 3.367188 -4.3125 3.738281 -4.414062 3.96875 -4.59375 C 4.207031 -4.769531 4.316406 -5.023438 4.296875 -5.359375 C 4.273438 -5.679688 4.144531 -5.910156 3.90625 -6.046875 C 3.664062 -6.179688 3.285156 -6.234375 2.765625 -6.203125 Z M 1.9375 -1.171875 L 3.328125 -1.25 C 3.734375 -1.28125 4.046875 -1.378906 4.265625 -1.546875 C 4.492188 -1.722656 4.597656 -1.984375 4.578125 -2.328125 C 4.546875 -2.972656 4.082031 -3.269531 3.1875 -3.21875 L 1.828125 -3.140625 Z M 1.9375 -1.171875 "/></g></g></g><g fill="#ffffff" fill-opacity="1"><g transform="translate(187.46408, 97.641803)"><g/></g></g><g fill="#ffffff" fill-opacity="1"><g transform="translate(197.08777, 98.583087)"><g><path d="M 0.71875 0.140625 L 2.09375 -6.828125 L 4.171875 -6.421875 C 5.523438 -6.148438 6.488281 -5.65625 7.0625 -4.9375 C 7.644531 -4.21875 7.820312 -3.285156 7.59375 -2.140625 C 7.457031 -1.429688 7.179688 -0.84375 6.765625 -0.375 C 6.359375 0.0820312 5.84375 0.398438 5.21875 0.578125 C 4.601562 0.753906 3.914062 0.769531 3.15625 0.625 Z M 2.21875 -0.75 L 3.328125 -0.53125 C 4.148438 -0.363281 4.8125 -0.429688 5.3125 -0.734375 C 5.8125 -1.046875 6.140625 -1.585938 6.296875 -2.359375 C 6.453125 -3.148438 6.351562 -3.785156 6 -4.265625 C 5.644531 -4.742188 5.015625 -5.078125 4.109375 -5.265625 L 3.15625 -5.453125 Z M 2.21875 -0.75 "/></g></g></g><g fill="#ffffff" fill-opacity="1"><g transform="translate(211.346542, 102.010457)"><g><path d="M 7 -3.859375 L 3.890625 -4.96875 L 3.28125 -3.25 L 6.234375 -2.203125 L 5.859375 -1.140625 L 2.90625 -2.1875 L 2.265625 -0.390625 L 5.484375 0.75 L 5.03125 1.796875 L 0.6875 0.25 L 3.0625 -6.453125 L 7.375 -4.921875 Z M 7 -3.859375 "/></g></g></g><g fill="#ffffff" fill-opacity="1"><g transform="translate(223.289303, 106.768391)"><g><path d="M 7.953125 -3.859375 L 9.09375 -3.265625 L 3.5 1.828125 L 1.890625 0.984375 L 3.28125 -6.296875 L 4.515625 -5.65625 L 3.265625 0.484375 Z M 7.953125 -3.859375 "/></g></g></g><g fill="#ffffff" fill-opacity="1"><g transform="translate(234.987382, 113.475152)"><g><path d="M 7.796875 -1.765625 L 5.109375 -3.6875 L 4.046875 -2.203125 L 6.59375 -0.375 L 5.9375 0.53125 L 3.390625 -1.296875 L 2.28125 0.25 L 5.0625 2.234375 L 4.34375 3.109375 L 0.59375 0.421875 L 4.734375 -5.359375 L 8.453125 -2.6875 Z M 7.796875 -1.765625 "/></g></g></g><g fill="#ffffff" fill-opacity="1"><g transform="translate(245.15196, 121.371738)"><g><path d="M 0.53125 0.5 L 5.40625 -4.671875 L 6.359375 -3.78125 L 2.265625 0.5625 L 4.5625 2.734375 L 3.71875 3.5 Z M 0.53125 0.5 "/></g></g></g><g fill="#ffffff" fill-opacity="1"><g transform="translate(253.832485, 130.133376)"><g><path d="M 2.34375 3.109375 C 1.894531 2.546875 1.617188 1.972656 1.515625 1.390625 C 1.410156 0.816406 1.476562 0.265625 1.71875 -0.265625 C 1.96875 -0.804688 2.382812 -1.304688 2.96875 -1.765625 C 3.539062 -2.222656 4.140625 -2.515625 4.765625 -2.640625 C 5.398438 -2.765625 6.007812 -2.71875 6.59375 -2.5 C 7.1875 -2.289062 7.710938 -1.894531 8.171875 -1.3125 C 8.578125 -0.800781 8.816406 -0.257812 8.890625 0.3125 C 8.960938 0.882812 8.875 1.441406 8.625 1.984375 C 8.382812 2.523438 7.992188 3.015625 7.453125 3.453125 C 6.847656 3.929688 6.226562 4.226562 5.59375 4.34375 C 4.96875 4.457031 4.367188 4.410156 3.796875 4.203125 C 3.234375 3.992188 2.75 3.628906 2.34375 3.109375 Z M 3.234375 2.359375 C 3.492188 2.679688 3.804688 2.90625 4.171875 3.03125 C 4.535156 3.15625 4.925781 3.171875 5.34375 3.078125 C 5.757812 2.984375 6.191406 2.765625 6.640625 2.421875 C 7.191406 1.984375 7.519531 1.488281 7.625 0.9375 C 7.738281 0.382812 7.609375 -0.128906 7.234375 -0.609375 C 6.960938 -0.953125 6.632812 -1.1875 6.25 -1.3125 C 5.875 -1.4375 5.472656 -1.453125 5.046875 -1.359375 C 4.617188 -1.273438 4.203125 -1.070312 3.796875 -0.75 C 3.203125 -0.28125 2.859375 0.222656 2.765625 0.765625 C 2.679688 1.316406 2.835938 1.847656 3.234375 2.359375 Z M 3.234375 2.359375 "/></g></g></g><g fill="#ffffff" fill-opacity="1"><g transform="translate(262.63784, 142.205732)"><g><path d="M 1 1.734375 L 0.359375 0.640625 L 6.53125 -2.890625 L 7.78125 -0.71875 C 8.238281 0.0820312 8.421875 0.785156 8.328125 1.390625 C 8.242188 2.003906 7.894531 2.488281 7.28125 2.84375 C 6.664062 3.1875 6.050781 3.226562 5.4375 2.96875 C 4.832031 2.71875 4.28125 2.15625 3.78125 1.28125 L 3.296875 0.421875 Z M 6.828125 -0.234375 L 6.25 -1.265625 L 4.234375 -0.109375 L 4.75 0.8125 C 5.050781 1.332031 5.351562 1.660156 5.65625 1.796875 C 5.957031 1.941406 6.285156 1.914062 6.640625 1.71875 C 6.984375 1.519531 7.164062 1.257812 7.1875 0.9375 C 7.21875 0.625 7.097656 0.234375 6.828125 -0.234375 Z M 6.828125 -0.234375 "/></g></g></g><g fill="#ffffff" fill-opacity="1"><g transform="translate(268.855001, 154.12636)"><g><path d="M 7.53125 2.71875 L 6.296875 -0.359375 L 4.59375 0.3125 L 5.765625 3.234375 L 4.71875 3.65625 L 3.546875 0.734375 L 1.78125 1.4375 L 3.0625 4.609375 L 1.984375 4.96875 L 0.265625 0.6875 L 6.875 -1.953125 L 8.578125 2.296875 Z M 7.53125 2.71875 "/></g></g></g><g fill="#ffffff" fill-opacity="1"><g transform="translate(273.1712, 166.235823)"><g><path d="M 2.703125 5.859375 L 1.8125 6.40625 C 1.675781 6.300781 1.554688 6.160156 1.453125 5.984375 C 1.347656 5.804688 1.269531 5.613281 1.21875 5.40625 C 1.039062 4.675781 1.226562 4.023438 1.78125 3.453125 L 3.0625 2.078125 C 3.195312 1.929688 3.285156 1.796875 3.328125 1.671875 C 3.367188 1.546875 3.375 1.414062 3.34375 1.28125 L 3.328125 1.234375 L 0.46875 1.9375 L 0.171875 0.71875 L 7.078125 -0.96875 L 7.609375 1.171875 C 7.816406 2.046875 7.796875 2.753906 7.546875 3.296875 C 7.296875 3.835938 6.859375 4.1875 6.234375 4.34375 C 5.847656 4.4375 5.492188 4.429688 5.171875 4.328125 C 4.847656 4.234375 4.566406 4.054688 4.328125 3.796875 C 4.097656 3.535156 3.914062 3.226562 3.78125 2.875 C 3.726562 3.101562 3.601562 3.328125 3.40625 3.546875 L 2.71875 4.28125 C 2.550781 4.476562 2.441406 4.648438 2.390625 4.796875 C 2.335938 4.941406 2.335938 5.113281 2.390625 5.3125 C 2.441406 5.53125 2.546875 5.710938 2.703125 5.859375 Z M 6.546875 1.34375 L 6.34375 0.5 L 4.3125 1 L 4.515625 1.78125 C 4.640625 2.300781 4.8125 2.664062 5.03125 2.875 C 5.257812 3.09375 5.554688 3.160156 5.921875 3.078125 C 6.585938 2.910156 6.796875 2.332031 6.546875 1.34375 Z M 6.546875 1.34375 "/></g></g></g></svg>